<svg width="973" height="506" viewBox="0 0 973 506" fill="none" xmlns="http://www.w3.org/2000/svg">
<path d="M932.797 20.1943C936.775 23.0254 940.347 26.1617 943.493 29.608L943.123 29.945C944.724 31.6989 946.213 33.5333 947.588 35.449C948.925 37.3133 950.141 39.2369 951.238 41.2177L951.675 40.9755C953.888 44.973 955.619 49.2023 956.882 53.6467L956.401 53.7833C957.617 58.0676 958.396 62.5563 958.747 67.235L959.246 67.1975C959.577 71.5975 959.532 76.1614 959.122 80.877L958.624 80.8337C958.243 85.2164 957.545 89.7332 956.537 94.3745L957.026 94.4806C956.086 98.8058 954.88 103.236 953.412 107.764L952.937 107.61C951.579 111.8 949.996 116.076 948.195 120.429L948.657 120.62C946.958 124.723 945.067 128.894 942.985 133.129L942.536 132.908C940.574 136.899 938.443 140.947 936.147 145.047L936.583 145.292C934.399 149.192 932.065 153.138 929.586 157.128L929.161 156.864C926.799 160.665 924.304 164.505 921.679 168.381L922.093 168.661C919.573 172.382 916.933 176.135 914.176 179.918L913.772 179.624C911.122 183.261 908.362 186.926 905.497 190.617L905.892 190.923C903.122 194.49 900.253 198.08 897.287 201.691L896.9 201.373C894.049 204.844 891.108 208.334 888.078 211.842L888.457 212.169C885.51 215.581 882.479 219.009 879.366 222.452L878.996 222.116C875.964 225.469 872.855 228.836 869.67 232.214L870.034 232.557C866.92 235.86 863.733 239.174 860.475 242.497L860.118 242.147C856.952 245.377 853.718 248.616 850.417 251.862L850.768 252.219C847.544 255.391 844.256 258.57 840.906 261.755L840.562 261.392C837.272 264.52 833.922 267.654 830.514 270.791L830.852 271.159C827.503 274.242 824.097 277.329 820.636 280.419L820.303 280.046C816.928 283.058 813.501 286.073 810.021 289.089L810.349 289.467C806.912 292.446 803.425 295.426 799.888 298.406L799.566 298.024C796.082 300.96 792.549 303.897 788.969 306.832L789.286 307.219C785.78 310.094 782.229 312.967 778.633 315.839L778.321 315.449C774.762 318.291 771.159 321.132 767.513 323.97L767.82 324.365C764.226 327.163 760.59 329.958 756.913 332.749L756.611 332.35C752.991 335.098 749.332 337.842 745.635 340.581L745.932 340.983C742.261 343.703 738.551 346.419 734.803 349.129L734.51 348.724C730.828 351.386 727.11 354.044 723.357 356.695L723.645 357.103C719.92 359.735 716.159 362.36 712.365 364.978L712.081 364.567C708.326 367.158 704.537 369.742 700.715 372.319L700.995 372.733C697.219 375.279 693.412 377.818 689.573 380.348L689.298 379.93C685.478 382.448 681.627 384.957 677.745 387.458L678.016 387.878C674.192 390.342 670.338 392.797 666.454 395.243L666.188 394.82C662.322 397.255 658.427 399.681 654.504 402.097L654.766 402.523C650.882 404.914 646.971 407.296 643.033 409.668L642.775 409.239C640.806 410.424 638.831 411.607 636.849 412.787C634.791 414.012 632.733 415.231 630.674 416.442L630.928 416.873C626.81 419.296 622.692 421.69 618.575 424.055L618.326 423.621C614.174 426.007 610.023 428.363 605.874 430.689L606.119 431.126C601.954 433.461 597.791 435.767 593.632 438.042L593.392 437.603C589.187 439.904 584.986 442.173 580.79 444.411L581.025 444.852C576.803 447.104 572.585 449.325 568.373 451.514L568.142 451.07C563.899 453.275 559.663 455.448 555.433 457.588L555.659 458.034C551.378 460.2 547.104 462.333 542.839 464.432L542.618 463.983C538.33 466.094 534.051 468.171 529.781 470.213L529.997 470.664C525.668 472.735 521.349 474.771 517.042 476.771L516.831 476.318C512.483 478.337 508.146 480.32 503.823 482.267L504.028 482.723C499.67 484.685 495.325 486.611 490.995 488.499L490.795 488.04C486.385 489.964 481.99 491.848 477.611 493.693L477.806 494.154C473.384 496.018 468.979 497.841 464.593 499.625L464.405 499.162C459.972 500.965 455.559 502.726 451.166 504.446L451.348 504.912C446.861 506.669 442.395 508.383 437.951 510.054L437.776 509.586C433.28 511.276 428.807 512.922 424.36 514.523L424.53 514.994C420.022 516.617 415.539 518.194 411.085 519.725L410.923 519.252C406.361 520.819 401.828 522.338 397.326 523.808L397.482 524.283C392.9 525.779 388.35 527.224 383.835 528.617L383.687 528.139C379.094 529.557 374.537 530.921 370.017 532.232L370.156 532.712C365.535 534.051 360.954 535.335 356.414 536.562L356.284 536.08C351.614 537.342 346.988 538.545 342.408 539.687L342.529 540.172C337.837 541.343 333.193 542.45 328.6 543.493L328.49 543.006C323.78 544.076 319.125 545.078 314.526 546.013L314.626 546.503C309.89 547.466 305.214 548.358 300.601 549.176L300.513 548.684C295.756 549.528 291.066 550.295 286.447 550.985L286.52 551.479C281.714 552.197 276.984 552.83 272.335 553.378L272.276 552.881C267.444 553.451 262.699 553.928 258.046 554.313L258.087 554.811C253.226 555.213 248.465 555.513 243.807 555.712L243.786 555.212C238.913 555.42 234.154 555.516 229.516 555.498L229.514 555.998C224.62 555.979 219.86 555.835 215.24 555.563L215.269 555.064C210.37 554.776 205.628 554.344 201.054 553.768L200.991 554.264C196.082 553.646 191.363 552.861 186.843 551.908L186.947 551.418C182.12 550.4 177.524 549.189 173.169 547.784L173.016 548.26C168.32 546.745 163.902 545.003 159.777 543.032L159.993 542.581C155.541 540.455 151.436 538.062 147.694 535.398L147.404 535.806C143.427 532.975 139.854 529.838 136.709 526.392L137.078 526.055C135.477 524.301 133.988 522.467 132.614 520.551C131.277 518.687 130.06 516.763 128.964 514.782L128.526 515.025C126.313 511.027 124.582 506.798 123.32 502.353L123.801 502.217C122.584 497.932 121.806 493.444 121.454 488.765L120.956 488.803C120.625 484.403 120.67 479.839 121.08 475.123L121.578 475.166C121.959 470.784 122.657 466.267 123.665 461.626L123.176 461.519C124.115 457.194 125.322 452.764 126.789 448.236L127.265 448.39C128.623 444.2 130.205 439.924 132.007 435.571L131.545 435.38C133.243 431.277 135.135 427.106 137.216 422.871L137.665 423.092C139.627 419.101 141.758 415.053 144.055 410.953L143.618 410.708C145.803 406.808 148.136 402.862 150.615 398.872L151.04 399.136C153.402 395.335 155.897 391.495 158.523 387.619L158.109 387.339C160.629 383.618 163.268 379.865 166.025 376.082L166.429 376.376C169.08 372.739 171.839 369.074 174.705 365.383L174.31 365.077C177.08 361.51 179.949 357.92 182.915 354.309L183.301 354.627C186.153 351.156 189.094 347.666 192.123 344.158L191.745 343.831C194.692 340.419 197.723 336.991 200.835 333.548L201.206 333.884C204.237 330.531 207.346 327.164 210.531 323.786L210.167 323.443C213.282 320.14 216.468 316.826 219.726 313.503L220.083 313.853C223.25 310.623 226.484 307.384 229.784 304.138L229.433 303.781C232.658 300.609 235.946 297.43 239.295 294.245L239.64 294.608C242.93 291.48 246.279 288.346 249.688 285.209L249.349 284.841C252.698 281.758 256.104 278.671 259.565 275.581L259.898 275.954C263.273 272.942 266.701 269.927 270.18 266.911L269.853 266.533C273.289 263.554 276.777 260.574 280.313 257.594L280.635 257.976C284.12 255.04 287.652 252.103 291.232 249.168L290.915 248.781C294.421 245.906 297.973 243.033 301.569 240.161L301.881 240.551C305.44 237.709 309.043 234.868 312.689 232.03L312.382 231.635C315.976 228.837 319.612 226.042 323.288 223.251L323.591 223.65C327.21 220.902 330.869 218.158 334.567 215.419L334.269 215.017C337.941 212.297 341.651 209.581 345.398 206.871L345.691 207.276C349.373 204.614 353.091 201.956 356.845 199.305L356.556 198.897C360.282 196.265 364.042 193.64 367.837 191.022L368.121 191.433C371.876 188.842 375.665 186.258 379.486 183.681L379.207 183.267C382.982 180.721 386.79 178.182 390.629 175.652L390.904 176.07C394.724 173.552 398.575 171.043 402.456 168.542L402.185 168.122C406.01 165.658 409.864 163.203 413.747 160.757L414.014 161.18C417.88 158.745 421.775 156.319 425.698 153.903L425.436 153.477C429.319 151.086 433.231 148.704 437.169 146.332L437.427 146.761C439.395 145.576 441.37 144.393 443.352 143.213C445.411 141.988 447.469 140.769 449.527 139.558L449.274 139.127C453.392 136.704 457.51 134.31 461.626 131.945L461.875 132.379C466.028 129.993 470.179 127.637 474.327 125.311L474.083 124.874C478.248 122.539 482.411 120.233 486.57 117.958L486.81 118.397C491.014 116.096 495.215 113.827 499.412 111.589L499.176 111.148C503.399 108.896 507.617 106.675 511.829 104.486L512.059 104.93C516.302 102.725 520.539 100.552 524.769 98.4123L524.543 97.9661C528.824 95.8 533.098 93.6672 537.362 91.5681L537.583 92.0167C541.871 89.9061 546.151 87.8294 550.42 85.787L550.204 85.336C554.534 83.265 558.852 81.2293 563.16 79.229L563.37 79.6825C567.719 77.663 572.056 75.6797 576.379 73.7329L576.174 73.277C580.532 71.3146 584.876 69.3893 589.206 67.5012L589.406 67.9596C593.817 66.0364 598.212 64.1521 602.59 62.3067L602.396 61.846C606.818 59.9824 611.222 58.1586 615.609 56.3749L615.797 56.838C620.229 55.0355 624.643 53.274 629.036 51.5538L628.853 51.0882C633.341 49.331 637.807 47.6169 642.25 45.9462L642.426 46.4142C646.922 44.7236 651.394 43.0776 655.841 41.4765L655.672 41.006C660.18 39.3829 664.662 37.8058 669.117 36.2752L669.279 36.7481C673.841 35.1806 678.374 33.6618 682.875 32.1923L682.72 31.717C687.302 30.2213 691.851 28.7764 696.367 27.383L696.514 27.8607C701.107 26.4433 705.665 25.0791 710.185 23.7685L710.046 23.2883C714.666 21.9486 719.247 20.6648 723.787 19.4376L723.918 19.9202C728.588 18.6577 733.214 17.4551 737.794 16.3127L737.673 15.8276C742.365 14.6571 747.009 13.55 751.601 12.5066L751.712 12.9942C756.421 11.9243 761.077 10.9215 765.676 9.98651L765.576 9.49653C770.312 8.5336 774.988 7.64245 779.601 6.82375L779.688 7.31605C784.446 6.47169 789.136 5.7045 793.755 5.0152L793.681 4.52068C798.487 3.80345 803.217 3.17042 807.867 2.62241L807.925 3.11898C812.757 2.54947 817.502 2.07194 822.156 1.68727L822.115 1.18897C826.975 0.787156 831.737 0.486503 836.394 0.288053L836.416 0.7876C841.289 0.579942 846.048 0.484384 850.686 0.502071L850.688 0.00207449C855.581 0.0207331 860.341 0.165206 864.961 0.4369L864.932 0.936037C869.832 1.22416 874.573 1.65559 879.148 2.23188L879.211 1.7358C884.119 2.35415 888.838 3.13902 893.358 4.09246L893.255 4.58169C898.082 5.59989 902.678 6.81052 907.032 8.21574L907.186 7.7399C911.881 9.25529 916.299 10.9968 920.424 12.9676L920.209 13.4187C924.66 15.5452 928.765 17.9384 932.507 20.6017L932.797 20.1943Z" stroke="#404040" stroke-dasharray="14 14"/>
<path d="M1060.12 87.4515C1063.72 90.6603 1066.85 94.0705 1069.49 97.6831L1069.09 97.9784C1070.46 99.853 1071.7 101.782 1072.8 103.765C1073.95 105.832 1074.94 107.938 1075.78 110.082L1076.24 109.9C1077.95 114.285 1079.02 118.829 1079.46 123.514L1078.96 123.562C1079.39 128.069 1079.24 132.713 1078.52 137.482L1079.01 137.557C1078.35 141.976 1077.2 146.498 1075.59 151.112L1075.12 150.947C1073.65 155.16 1071.78 159.453 1069.54 163.818L1069.99 164.046C1067.93 168.038 1065.57 172.087 1062.89 176.187L1062.47 175.914C1060.02 179.666 1057.32 183.463 1054.36 187.299L1054.75 187.604C1051.99 191.185 1049.01 194.799 1045.81 198.441L1045.44 198.111C1042.45 201.522 1039.27 204.958 1035.9 208.417L1036.26 208.765C1033.08 212.039 1029.74 215.332 1026.23 218.642L1025.89 218.279C1022.56 221.422 1019.09 224.581 1015.48 227.754L1015.81 228.13C1012.36 231.155 1008.79 234.192 1005.09 237.239L1004.77 236.853C1001.24 239.76 997.601 242.675 993.847 245.598L994.155 245.993C990.53 248.815 986.801 251.645 982.971 254.48L982.673 254.078C978.966 256.822 975.163 259.571 971.266 262.323L971.554 262.732C967.765 265.408 963.888 268.088 959.924 270.77L959.644 270.356C955.842 272.928 951.961 275.501 948.001 278.076L948.274 278.495C944.399 281.015 940.45 283.535 936.427 286.055L936.162 285.631C932.221 288.1 928.211 290.568 924.131 293.034L924.39 293.462C920.442 295.849 916.43 298.234 912.354 300.617L912.102 300.186C908.103 302.524 904.044 304.86 899.925 307.193L900.171 307.628C896.114 309.927 891.999 312.222 887.827 314.513L887.586 314.075C883.541 316.296 879.443 318.514 875.293 320.728L875.528 321.169C871.42 323.36 867.262 325.546 863.053 327.728L862.823 327.284C858.701 329.42 854.531 331.552 850.313 333.678L850.539 334.125C846.392 336.215 842.201 338.3 837.965 340.379L837.744 339.93C833.554 341.986 829.32 344.037 825.043 346.081L825.259 346.532C821.078 348.53 816.857 350.522 812.596 352.506L812.385 352.053C808.149 354.026 803.873 355.993 799.558 357.952L799.765 358.407C795.542 360.325 791.282 362.235 786.986 364.138L786.783 363.681C782.516 365.571 778.212 367.454 773.873 369.329L774.072 369.788C769.802 371.632 765.499 373.469 761.163 375.297L760.969 374.837C756.671 376.649 752.341 378.453 747.979 380.248L748.169 380.711C743.86 382.484 739.52 384.249 735.15 386.004L734.963 385.541C730.637 387.279 726.281 389.008 721.896 390.728L722.079 391.193C717.735 392.897 713.364 394.591 708.964 396.276L708.785 395.809C704.432 397.477 700.05 399.134 695.642 400.783L695.817 401.251C691.444 402.886 687.045 404.511 682.62 406.126L682.449 405.657C678.068 407.256 673.662 408.845 669.231 410.424L669.399 410.895C665 412.463 660.576 414.02 656.129 415.567L655.965 415.095C651.558 416.628 647.128 418.151 642.674 419.663L642.835 420.136C638.413 421.638 633.968 423.128 629.501 424.608L629.344 424.134C627.111 424.873 624.873 425.61 622.629 426.344C620.415 427.069 618.201 427.789 615.988 428.504L616.142 428.98C611.716 430.41 607.294 431.822 602.878 433.214L602.727 432.737C598.293 434.134 593.865 435.513 589.442 436.871L589.589 437.349C585.139 438.716 580.696 440.064 576.259 441.391L576.116 440.912C571.662 442.245 567.215 443.558 562.776 444.851L562.916 445.331C558.444 446.634 553.98 447.916 549.525 449.179L549.388 448.697C544.915 449.965 540.451 451.211 535.996 452.438L536.128 452.92C531.635 454.157 527.151 455.373 522.678 456.568L522.549 456.085C518.056 457.286 513.574 458.465 509.104 459.624L509.229 460.108C504.715 461.277 500.213 462.426 495.723 463.552L495.602 463.067C491.089 464.2 486.59 465.31 482.103 466.399L482.221 466.885C477.689 467.985 473.17 469.063 468.665 470.119L468.551 469.632C464.019 470.695 459.5 471.735 454.998 472.752L455.108 473.24C450.559 474.268 446.025 475.273 441.509 476.255L441.403 475.766C436.848 476.756 432.311 477.723 427.791 478.667L427.894 479.156C423.33 480.109 418.785 481.037 414.259 481.942L414.161 481.452C409.583 482.367 405.025 483.258 400.488 484.124L400.582 484.615C396.007 485.488 391.453 486.336 386.921 487.16L386.832 486.668C382.229 487.504 377.65 488.315 373.094 489.099L373.178 489.592C368.596 490.381 364.038 491.144 359.506 491.881L359.425 491.388C354.796 492.14 350.192 492.866 345.616 493.564L345.692 494.058C341.088 494.76 336.512 495.435 331.966 496.082L331.895 495.587C327.255 496.247 322.646 496.878 318.068 497.48L318.133 497.976C313.498 498.586 308.896 499.166 304.326 499.716L304.267 499.22C299.631 499.779 295.03 500.306 290.465 500.804L290.52 501.301C285.851 501.809 281.219 502.286 276.627 502.73L276.579 502.233C271.938 502.682 267.338 503.098 262.778 503.482L262.82 503.98C258.134 504.374 253.493 504.734 248.896 505.059L248.861 504.56C244.18 504.89 239.547 505.185 234.962 505.444L234.991 505.943C230.331 506.206 225.722 506.431 221.165 506.619L221.145 506.12C216.428 506.315 211.767 506.469 207.164 506.584L207.176 507.084C202.472 507.201 197.827 507.276 193.245 507.31L193.242 506.81C188.558 506.844 183.94 506.834 179.39 506.78L179.384 507.28C174.663 507.224 170.015 507.121 165.442 506.971L165.459 506.471C160.731 506.315 156.084 506.109 151.52 505.852L151.492 506.351C146.773 506.085 142.143 505.765 137.606 505.391L137.647 504.892C132.944 504.504 128.34 504.058 123.84 503.552L123.784 504.049C119.085 503.522 114.499 502.93 110.028 502.275L110.1 501.78C105.394 501.09 100.817 500.33 96.3737 499.498L96.2817 499.989C91.5847 499.11 87.036 498.152 82.6408 497.113L82.7558 496.627C78.1048 495.528 73.6271 494.34 69.329 493.063L69.1866 493.543C64.5872 492.176 60.1921 490.707 56.0089 489.136L56.1848 488.667C51.6735 486.973 47.4114 485.159 43.4081 483.225L43.1907 483.676C38.8097 481.56 34.7354 479.301 30.9809 476.899L31.2504 476.478C27.1868 473.877 23.503 471.11 20.2141 468.175L19.8813 468.548C16.2851 465.34 13.1547 461.93 10.5114 458.317L10.915 458.022C9.5434 456.147 8.30467 454.218 7.20154 452.235C6.05169 450.168 5.06016 448.062 4.2242 445.918L3.75836 446.1C2.04842 441.715 0.982014 437.172 0.538136 432.486L1.03591 432.438C0.608978 427.931 0.763117 423.287 1.48146 418.518L0.987036 418.443C1.65273 414.024 2.79863 409.502 4.40977 404.888L4.88182 405.053C6.35313 400.84 8.21579 396.547 10.4594 392.182L10.0147 391.954C12.0665 387.962 14.4343 383.913 17.1092 379.813L17.528 380.087C19.9764 376.334 22.6838 372.537 25.6439 368.701L25.248 368.396C28.0111 364.815 30.9928 361.202 34.1877 357.559L34.5636 357.889C37.5546 354.478 40.7333 351.042 44.0954 347.583L43.7368 347.235C46.9184 343.961 50.2633 340.668 53.7678 337.358L54.1111 337.721C57.439 334.578 60.9112 331.419 64.5247 328.246L64.1948 327.87C67.6401 324.845 71.2134 321.808 74.9118 318.761L75.2297 319.147C78.7574 316.241 82.3992 313.325 86.1527 310.402L85.8455 310.007C89.4704 307.185 93.1991 304.355 97.0294 301.52L97.3269 301.922C101.035 299.178 104.838 296.429 108.734 293.677L108.446 293.269C112.235 290.592 116.113 287.912 120.076 285.23L120.357 285.645C124.158 283.072 128.04 280.499 131.999 277.924L131.726 277.505C135.601 274.985 139.551 272.465 143.573 269.945L143.839 270.369C147.779 267.9 151.79 265.433 155.869 262.966L155.61 262.538C159.558 260.151 163.571 257.766 167.646 255.383L167.898 255.814C171.897 253.476 175.956 251.14 180.075 248.807L179.829 248.372C183.886 246.073 188.002 243.778 192.173 241.487L192.414 241.925C196.459 239.704 200.557 237.486 204.707 235.272L204.472 234.831C208.58 232.64 212.739 230.454 216.947 228.272L217.177 228.716C221.3 226.58 225.47 224.448 229.687 222.322L229.462 221.875C233.608 219.785 237.8 217.7 242.036 215.621L242.256 216.07C246.446 214.014 250.68 211.963 254.957 209.919L254.741 209.468C258.922 207.47 263.143 205.478 267.404 203.494L267.615 203.947C271.852 201.974 276.127 200.007 280.442 198.048L280.235 197.593C284.458 195.675 288.718 193.765 293.014 191.862L293.217 192.319C297.485 190.429 301.788 188.546 306.127 186.671L305.929 186.212C310.198 184.368 314.501 182.531 318.837 180.703L319.032 181.163C323.329 179.351 327.659 177.547 332.022 175.752L331.831 175.29C336.14 173.516 340.48 171.751 344.85 169.996L345.037 170.46C349.363 168.721 353.719 166.992 358.104 165.272L357.922 164.807C362.265 163.103 366.636 161.409 371.036 159.724L371.215 160.191C375.569 158.524 379.95 156.866 384.358 155.217L384.183 154.749C388.556 153.114 392.955 151.489 397.38 149.874L397.551 150.343C401.932 148.744 406.338 147.155 410.769 145.576L410.601 145.105C415 143.537 419.424 141.98 423.871 140.433L424.035 140.905C428.442 139.372 432.873 137.849 437.326 136.337L437.165 135.864C441.588 134.362 446.032 132.872 450.499 131.392L450.656 131.866C452.889 131.127 455.127 130.39 457.371 129.656C459.586 128.931 461.799 128.211 464.012 127.496L463.858 127.02C468.284 125.59 472.706 124.178 477.122 122.786L477.273 123.263C481.707 121.866 486.136 120.487 490.558 119.129L490.411 118.651C494.861 117.284 499.304 115.936 503.741 114.609L503.884 115.088C508.338 113.755 512.785 112.442 517.224 111.149L517.084 110.669C521.556 109.366 526.02 108.084 530.476 106.822L530.612 107.303C535.085 106.035 539.549 104.789 544.004 103.562L543.872 103.08C548.365 101.843 552.849 100.627 557.322 99.4317L557.452 99.9147C561.944 98.7143 566.426 97.5348 570.897 96.3763L570.771 95.8923C575.285 94.7227 579.787 93.5745 584.277 92.4478L584.399 92.9328C588.911 91.8004 593.411 90.6897 597.897 89.6008L597.779 89.1149C602.312 88.0148 606.83 86.9368 611.335 85.881L611.449 86.3678C615.982 85.3054 620.5 84.2654 625.002 83.248L624.892 82.7602C629.441 81.7323 633.975 80.7272 638.491 79.7452L638.598 80.2338C643.152 79.2436 647.689 78.2768 652.209 77.3334L652.107 76.8439C656.67 75.8913 661.216 74.9626 665.742 74.0578L665.84 74.5481C670.417 73.633 674.975 72.7424 679.512 71.8763L679.418 71.3852C683.993 70.5119 688.547 69.6636 693.079 68.8402L693.168 69.3322C697.771 68.4959 702.351 67.6855 706.907 66.9008L706.822 66.4081C711.404 65.6189 715.962 64.8558 720.495 64.1189L720.575 64.6124C725.205 63.8598 729.808 63.1344 734.384 62.4364L734.309 61.9421C738.912 61.2398 743.488 60.5652 748.035 59.9184L748.105 60.4134C752.745 59.7533 757.354 59.122 761.932 58.5197L761.867 58.024C766.502 57.4142 771.105 56.834 775.674 56.2836L775.734 56.78C780.369 56.2215 784.97 55.6936 789.535 55.1964L789.481 54.6993C794.149 54.1907 798.781 53.7141 803.373 53.2696L803.421 53.7673C808.062 53.3182 812.663 52.9018 817.222 52.5182L817.18 52.02C821.866 51.6258 826.508 51.2663 831.104 50.9415L831.139 51.4403C835.82 51.1096 840.453 50.815 845.038 50.5564L845.01 50.0572C849.669 49.7944 854.278 49.5689 858.835 49.3807L858.856 49.8803C863.572 49.6855 868.233 49.5308 872.836 49.4162L872.824 48.9163C877.529 48.7991 882.173 48.7238 886.755 48.6905L886.758 49.1905C891.442 49.1564 896.06 49.1662 900.611 49.22L900.617 48.72C905.337 48.7758 909.985 48.8789 914.558 49.0293L914.542 49.5291C919.269 49.6846 923.917 49.8909 928.48 50.148L928.508 49.6488C933.227 49.9146 937.857 50.2347 942.394 50.6093L942.353 51.1076C947.056 51.4958 951.66 51.9425 956.161 52.4478L956.216 51.9509C960.915 52.4784 965.501 53.0697 969.973 53.7251L969.9 54.2198C974.606 54.9096 979.183 55.6703 983.627 56.5021L983.719 56.0106C988.416 56.8898 992.964 57.8484 997.359 58.8866L997.244 59.3732C1001.9 60.4719 1006.37 61.6597 1010.67 62.9367L1010.81 62.4574C1015.41 63.824 1019.81 65.2929 1023.99 66.8645L1023.82 67.3326C1028.33 69.0275 1032.59 70.8414 1036.59 72.7746L1036.81 72.3243C1041.19 74.4399 1045.26 76.6987 1049.02 79.1013L1048.75 79.5224C1052.81 82.1227 1056.5 84.8901 1059.79 87.8246L1060.12 87.4515Z" stroke="#404040" stroke-dasharray="14 14"/>
</svg>